<svg viewBox="0 0 800 600" xmlns="http://www.w3.org/2000/svg">
    <defs>
        <style>
            .title { font-family: Arial, sans-serif; font-size: 18px; font-weight: bold; }
            .subtitle { font-family: Arial, sans-serif; font-size: 14px; font-weight: bold; }
            .label { font-family: Arial, sans-serif; font-size: 12px; }
            .small-label { font-family: Arial, sans-serif; font-size: 10px; }
            .signal-line { stroke: #2563eb; stroke-width: 2; fill: none; }
            .kernel-line { stroke: #dc2626; stroke-width: 2; fill: none; }
            .result-line { stroke: #059669; stroke-width: 2; fill: none; }
            .corrupted { stroke: #f59e0b; stroke-width: 2; fill: none; stroke-dasharray: 4,4; }
            .grid-line { stroke: #e5e7eb; stroke-width: 1; }
            .arrow { marker-end: url(#arrowhead); }
        </style>
        <marker id="arrowhead" markerWidth="10" markerHeight="7" refX="9" refY="3.5" orient="auto">
            <polygon points="0 0, 10 3.5, 0 7" fill="#374151"/>
        </marker>
    </defs>

    <!-- Main Title -->
    <text x="400" y="25" text-anchor="middle" class="title">Circular vs Linear Convolution: The Wraparound Problem
    </text>

    <!-- Linear Convolution Section -->
    <text x="200" y="55" text-anchor="middle" class="subtitle">Linear Convolution (What We Want)</text>

    <!-- Linear convolution signal -->
    <g transform="translate(50, 70)">
        <!-- Grid -->
        <line x1="0" y1="80" x2="300" y2="80" class="grid-line"/>
        <line x1="0" y1="60" x2="300" y2="60" class="grid-line"/>
        <line x1="0" y1="40" x2="300" y2="40" class="grid-line"/>

        <!-- Signal samples -->
        <circle cx="20" cy="60" r="3" fill="#2563eb"/>
        <circle cx="60" cy="40" r="3" fill="#2563eb"/>
        <circle cx="100" cy="50" r="3" fill="#2563eb"/>
        <circle cx="140" cy="70" r="3" fill="#2563eb"/>
        <!-- Zero padding -->
        <circle cx="180" cy="80" r="2" fill="#94a3b8"/>
        <circle cx="220" cy="80" r="2" fill="#94a3b8"/>
        <circle cx="260" cy="80" r="2" fill="#94a3b8"/>

        <!-- Signal line -->
        <polyline points="20,60 60,40 100,50 140,70 180,80 220,80 260,80" class="signal-line"/>

        <!-- Labels -->
        <text x="20" y="100" text-anchor="middle" class="small-label">x[0]</text>
        <text x="60" y="100" text-anchor="middle" class="small-label">x[1]</text>
        <text x="100" y="100" text-anchor="middle" class="small-label">x[2]</text>
        <text x="140" y="100" text-anchor="middle" class="small-label">x[3]</text>
        <text x="200" y="100" text-anchor="middle" class="small-label">zero pad</text>

        <!-- Arrow showing proper flow -->
        <line x1="20" y1="120" x2="260" y2="120" class="arrow"/>
        <text x="140" y="135" text-anchor="middle" class="small-label">Signal flows naturally →</text>
    </g>

    <!-- Circular Convolution Section -->
    <text x="200" y="185" text-anchor="middle" class="subtitle">Circular Convolution (What FFT Gives Us)</text>

    <!-- Circular convolution with wraparound -->
    <g transform="translate(50, 200)">
        <!-- Circular representation -->
        <circle cx="150" cy="80" r="70" fill="none" stroke="#94a3b8" stroke-width="1" stroke-dasharray="2,2"/>

        <!-- Signal samples on circle -->
        <circle cx="150" cy="10" r="3" fill="#2563eb"/>  <!-- x[0] at top -->
        <circle cx="220" cy="80" r="3" fill="#2563eb"/>  <!-- x[1] at right -->
        <circle cx="150" cy="150" r="3" fill="#2563eb"/> <!-- x[2] at bottom -->
        <circle cx="80" cy="80" r="3" fill="#2563eb"/>   <!-- x[3] at left -->

        <!-- Wraparound arrows -->
        <path d="M 150,10 A 70,70 0 0,1 220,80" fill="none" stroke="#dc2626" stroke-width="2"
              marker-end="url(#arrowhead)"/>
        <path d="M 220,80 A 70,70 0 0,1 150,150" fill="none" stroke="#dc2626" stroke-width="2"
              marker-end="url(#arrowhead)"/>
        <path d="M 150,150 A 70,70 0 0,1 80,80" fill="none" stroke="#dc2626" stroke-width="2"
              marker-end="url(#arrowhead)"/>
        <path d="M 80,80 A 70,70 0 0,1 150,10" fill="none" stroke="#dc2626" stroke-width="2"
              marker-end="url(#arrowhead)"/>

        <!-- Labels -->
        <text x="150" y="5" text-anchor="middle" class="small-label">x[0]</text>
        <text x="230" y="85" text-anchor="middle" class="small-label">x[1]</text>
        <text x="150" y="165" text-anchor="middle" class="small-label">x[2]</text>
        <text x="70" y="85" text-anchor="middle" class="small-label">x[3]</text>

        <text x="150" y="180" text-anchor="middle" class="small-label">Signal wraps around in circle</text>
    </g>

    <!-- Problem Illustration -->
    <text x="600" y="55" text-anchor="middle" class="subtitle">The Problem: Aliased Samples</text>

    <g transform="translate(450, 70)">
        <!-- Block processing example -->
        <rect x="0" y="20" width="300" height="40" fill="none" stroke="#374151" stroke-width="1"/>
        <text x="150" y="15" text-anchor="middle" class="small-label">FFT Block (Length N)</text>

        <!-- Signal block -->
        <rect x="10" y="25" width="100" height="30" fill="#dbeafe" stroke="#2563eb"/>
        <text x="60" y="45" text-anchor="middle" class="small-label">Signal Block</text>

        <!-- Kernel influence -->
        <rect x="110" y="25" width="80" height="30" fill="#fee2e2" stroke="#dc2626"/>
        <text x="150" y="45" text-anchor="middle" class="small-label">Kernel Length</text>

        <!-- Zero padding -->
        <rect x="190" y="25" width="100" height="30" fill="#f3f4f6" stroke="#6b7280"/>
        <text x="240" y="45" text-anchor="middle" class="small-label">Zero Pad</text>

        <!-- Result with corruption -->
        <rect x="0" y="80" width="300" height="40" fill="none" stroke="#374151" stroke-width="1"/>
        <text x="150" y="75" text-anchor="middle" class="small-label">Convolution Result</text>

        <!-- Corrupted samples -->
        <rect x="10" y="85" width="80" height="30" fill="#fef3c7" stroke="#f59e0b" stroke-dasharray="4,4"/>
        <text x="50" y="105" text-anchor="middle" class="small-label">Corrupted!</text>

        <!-- Valid samples -->
        <rect x="90" y="85" width="100" height="30" fill="#d1fae5" stroke="#059669"/>
        <text x="140" y="105" text-anchor="middle" class="small-label">Valid Samples</text>

        <!-- More corrupted -->
        <rect x="190" y="85" width="100" height="30" fill="#fef3c7" stroke="#f59e0b" stroke-dasharray="4,4"/>
        <text x="240" y="105" text-anchor="middle" class="small-label">Corrupted!</text>

        <!-- Arrows showing wraparound -->
        <path d="M 20,130 Q 10,150 280,150 Q 290,130 280,110" stroke="#f59e0b" stroke-width="2" fill="none"
              marker-end="url(#arrowhead)"/>
        <text x="150" y="165" text-anchor="middle" class="small-label">End samples wrap around and corrupt beginning
        </text>
    </g>

    <!-- Solution preview -->
    <g transform="translate(50, 350)">
        <text x="350" y="0" text-anchor="middle" class="subtitle">Overlap-Save Solution</text>

        <!-- Block 1 -->
        <rect x="0" y="20" width="150" height="30" fill="none" stroke="#374151"/>
        <rect x="5" y="25" width="40" height="20" fill="#fef3c7" stroke="#f59e0b" stroke-dasharray="2,2"/>
        <rect x="45" y="25" width="100" height="20" fill="#d1fae5" stroke="#059669"/>
        <text x="75" y="60" text-anchor="middle" class="small-label">Block 1</text>
        <text x="25" y="75" text-anchor="middle" class="small-label">Discard</text>
        <text x="95" y="75" text-anchor="middle" class="small-label">Keep</text>

        <!-- Block 2 -->
        <rect x="120" y="20" width="150" height="30" fill="none" stroke="#374151"/>
        <rect x="125" y="25" width="40" height="20" fill="#fef3c7" stroke="#f59e0b" stroke-dasharray="2,2"/>
        <rect x="165" y="25" width="100" height="20" fill="#d1fae5" stroke="#059669"/>
        <text x="195" y="60" text-anchor="middle" class="small-label">Block 2</text>

        <!-- Block 3 -->
        <rect x="240" y="20" width="150" height="30" fill="none" stroke="#374151"/>
        <rect x="245" y="25" width="40" height="20" fill="#fef3c7" stroke="#f59e0b" stroke-dasharray="2,2"/>
        <rect x="285" y="25" width="100" height="20" fill="#d1fae5" stroke="#059669"/>
        <text x="315" y="60" text-anchor="middle" class="small-label">Block 3</text>

        <!-- Overlap indication -->
        <path d="M 120,10 L 165,10" stroke="#dc2626" stroke-width="2"/>
        <path d="M 240,10 L 285,10" stroke="#dc2626" stroke-width="2"/>
        <text x="142" y="8" text-anchor="middle" class="small-label">Overlap</text>
        <text x="262" y="8" text-anchor="middle" class="small-label">Overlap</text>

        <text x="350" y="95" text-anchor="middle" class="small-label">Only keep valid samples from each block</text>
    </g>

    <!-- Legend -->
    <g transform="translate(50, 480)">
        <text x="0" y="15" class="subtitle">Legend:</text>

        <circle cx="20" cy="35" r="3" fill="#2563eb"/>
        <text x="35" y="40" class="small-label">Signal Samples</text>

        <rect x="15" y="50" width="20" height="10" fill="#d1fae5" stroke="#059669"/>
        <text x="45" y="60" class="small-label">Valid Output</text>

        <rect x="15" y="70" width="20" height="10" fill="#fef3c7" stroke="#f59e0b" stroke-dasharray="2,2"/>
        <text x="45" y="80" class="small-label">Corrupted by Wraparound</text>

        <line x1="200" y1="35" x2="240" y2="35" stroke="#dc2626" stroke-width="2"/>
        <text x="250" y="40" class="small-label">Circular Flow/Overlap</text>

        <circle cx="220" cy="55" r="2" fill="#94a3b8"/>
        <text x="235" y="60" class="small-label">Zero Padding</text>
    </g>
</svg>