<svg viewBox="0 0 900 700" xmlns="http://www.w3.org/2000/svg">
    <defs>
        <style>
            .title { font-family: Arial, sans-serif; font-size: 18px; font-weight: bold; }
            .subtitle { font-family: Arial, sans-serif; font-size: 14px; font-weight: bold; }
            .label { font-family: Arial, sans-serif; font-size: 12px; }
            .small-label { font-family: Arial, sans-serif; font-size: 10px; }
            .tiny-label { font-family: Arial, sans-serif; font-size: 9px; }
            .grid-line { stroke: #e5e7eb; stroke-width: 1; }
            .arrow { marker-end: url(#arrowhead); stroke: #374151; stroke-width: 1.5; }
            .process-arrow { marker-end: url(#arrowhead); stroke: #7c3aed; stroke-width: 2; }
        </style>
        <marker id="arrowhead" markerWidth="10" markerHeight="7" refX="9" refY="3.5" orient="auto">
            <polygon points="0 0, 10 3.5, 0 7" fill="#374151"/>
        </marker>
        <pattern id="overlap-pattern" patternUnits="userSpaceOnUse" width="4" height="4">
            <rect width="4" height="4" fill="#fbbf24"/>
            <rect width="2" height="2" fill="#f59e0b"/>
        </pattern>
    </defs>

    <!-- Main Title -->
    <text x="450" y="25" text-anchor="middle" class="title">Overlap Save Block Processing</text>
    <text x="450" y="45" text-anchor="middle" class="label">Why we overlap inputs but not outputs</text>

    <!-- Input Signal Timeline -->
    <g transform="translate(50, 70)">
        <text x="0" y="0" class="subtitle">1. Input Signal (broken into overlapping blocks)</text>

        <!-- Continuous input signal -->
        <rect x="0" y="20" width="800" height="25" fill="#dbeafe" stroke="#2563eb" stroke-width="1"/>
        <text x="400" y="37" text-anchor="middle" class="small-label">Long Input Signal x[n]</text>

        <!-- Block boundaries -->
        <g stroke="#dc2626" stroke-width="2">
            <!-- Block 1 -->
            <rect x="0" y="55" width="240" height="35" fill="none" stroke="#059669" stroke-width="2"/>
            <rect x="0" y="60" width="60" height="25" fill="url(#overlap-pattern)" stroke="#f59e0b"/>
            <rect x="60" y="60" width="180" height="25" fill="#dcfce7" stroke="#059669"/>

            <!-- Block 2 -->
            <rect x="180" y="95" width="240" height="35" fill="none" stroke="#059669" stroke-width="2"/>
            <rect x="180" y="100" width="60" height="25" fill="url(#overlap-pattern)" stroke="#f59e0b"/>
            <rect x="240" y="100" width="180" height="25" fill="#dcfce7" stroke="#059669"/>

            <!-- Block 3 -->
            <rect x="360" y="135" width="240" height="35" fill="none" stroke="#059669" stroke-width="2"/>
            <rect x="360" y="140" width="60" height="25" fill="url(#overlap-pattern)" stroke="#f59e0b"/>
            <rect x="420" y="140" width="180" height="25" fill="#dcfce7" stroke="#059669"/>

            <!-- Block 4 -->
            <rect x="540" y="175" width="240" height="35" fill="none" stroke="#059669" stroke-width="2"/>
            <rect x="540" y="180" width="60" height="25" fill="url(#overlap-pattern)" stroke="#f59e0b"/>
            <rect x="600" y="180" width="180" height="25" fill="#dcfce7" stroke="#059669"/>
        </g>

        <!-- Labels -->
        <text x="120" y="52" text-anchor="middle" class="tiny-label">Block 1 (FFT Size)</text>
        <text x="300" y="92" text-anchor="middle" class="tiny-label">Block 2</text>
        <text x="480" y="132" text-anchor="middle" class="tiny-label">Block 3</text>
        <text x="660" y="172" text-anchor="middle" class="tiny-label">Block 4</text>

        <!-- Overlap indicators -->
        <text x="30" y="77" text-anchor="middle" class="tiny-label">Overlap</text>
        <text x="210" y="117" text-anchor="middle" class="tiny-label">Overlap</text>
        <text x="390" y="157" text-anchor="middle" class="tiny-label">Overlap</text>
        <text x="570" y="197" text-anchor="middle" class="tiny-label">Overlap</text>

        <!-- Step size arrows -->
        <line x1="60" y1="220" x2="240" y2="220" class="arrow"/>
        <text x="150" y="235" text-anchor="middle" class="tiny-label">Step Size = Block Size - Overlap</text>

        <line x1="240" y1="240" x2="420" y2="240" class="arrow"/>
        <line x1="420" y1="260" x2="600" y2="260" class="arrow"/>
    </g>

    <!-- Processing Pipeline -->
    <g transform="translate(50, 350)">
        <text x="0" y="0" class="subtitle">2. Processing Pipeline (each block)</text>

        <!-- Block input -->
        <rect x="0" y="20" width="120" height="40" fill="#dbeafe" stroke="#2563eb" stroke-width="2"/>
        <text x="60" y="35" text-anchor="middle" class="tiny-label">Input Block</text>
        <text x="60" y="47" text-anchor="middle" class="tiny-label">(with overlap)</text>

        <!-- FFT -->
        <line x1="120" y1="40" x2="160" y2="40" class="process-arrow"/>
        <rect x="160" y="20" width="80" height="40" fill="#f3e8ff" stroke="#7c3aed" stroke-width="2"/>
        <text x="200" y="42" text-anchor="middle" class="small-label">FFT</text>

        <!-- Multiply -->
        <line x1="240" y1="40" x2="280" y2="40" class="process-arrow"/>
        <rect x="280" y="20" width="80" height="40" fill="#fef3c7" stroke="#f59e0b" stroke-width="2"/>
        <text x="320" y="37" text-anchor="middle" class="tiny-label">Multiply</text>
        <text x="320" y="47" text-anchor="middle" class="tiny-label">H(ω)</text>

        <!-- IFFT -->
        <line x1="360" y1="40" x2="400" y2="40" class="process-arrow"/>
        <rect x="400" y="20" width="80" height="40" fill="#f3e8ff" stroke="#7c3aed" stroke-width="2"/>
        <text x="440" y="42" text-anchor="middle" class="small-label">IFFT</text>

        <!-- Output block -->
        <line x1="480" y1="40" x2="520" y2="40" class="process-arrow"/>
        <rect x="520" y="20" width="160" height="40" fill="none" stroke="#374151" stroke-width="2"/>
        <rect x="525" y="25" width="50" height="30" fill="#fecaca" stroke="#dc2626" stroke-dasharray="2,2"/>
        <rect x="575" y="25" width="100" height="30" fill="#dcfce7" stroke="#059669"/>
        <text x="550" y="42" text-anchor="middle" class="tiny-label">Discard</text>
        <text x="625" y="42" text-anchor="middle" class="tiny-label">Keep</text>

        <text x="340" y="80" text-anchor="middle" class="small-label">Same process for every block</text>
    </g>

    <!-- Output Assembly -->
    <g transform="translate(50, 470)">
        <text x="0" y="0" class="subtitle">3. Output Assembly (only valid samples)</text>

        <!-- Block 1 output -->
        <rect x="0" y="20" width="50" height="25" fill="#fecaca" stroke="#dc2626" stroke-dasharray="2,2"/>
        <rect x="50" y="20" width="100" height="25" fill="#dcfce7" stroke="#059669" stroke-width="2"/>
        <text x="75" y="52" text-anchor="middle" class="tiny-label">Block 1</text>
        <text x="25" y="62" text-anchor="middle" class="tiny-label">Corrupt</text>
        <text x="100" y="62" text-anchor="middle" class="tiny-label">Valid</text>

        <!-- Block 2 output -->
        <rect x="150" y="20" width="50" height="25" fill="#fecaca" stroke="#dc2626" stroke-dasharray="2,2"/>
        <rect x="200" y="20" width="100" height="25" fill="#dcfce7" stroke="#059669" stroke-width="2"/>
        <text x="225" y="52" text-anchor="middle" class="tiny-label">Block 2</text>

        <!-- Block 3 output -->
        <rect x="300" y="20" width="50" height="25" fill="#fecaca" stroke="#dc2626" stroke-dasharray="2,2"/>
        <rect x="350" y="20" width="100" height="25" fill="#dcfce7" stroke="#059669" stroke-width="2"/>
        <text x="375" y="52" text-anchor="middle" class="tiny-label">Block 3</text>

        <!-- Block 4 output -->
        <rect x="450" y="20" width="50" height="25" fill="#fecaca" stroke="#dc2626" stroke-dasharray="2,2"/>
        <rect x="500" y="20" width="100" height="25" fill="#dcfce7" stroke="#059669" stroke-width="2"/>
        <text x="525" y="52" text-anchor="middle" class="tiny-label">Block 4</text>

        <!-- Final continuous output -->
        <rect x="50" y="80" width="550" height="30" fill="#dcfce7" stroke="#059669" stroke-width="3"/>
        <text x="325" y="100" text-anchor="middle" class="small-label">Final Continuous Output y[n]</text>

        <!-- Assembly arrows -->
        <line x1="100" y1="45" x2="100" y2="80" class="arrow"/>
        <line x1="250" y1="45" x2="200" y2="80" class="arrow"/>
        <line x1="400" y1="45" x2="300" y2="80" class="arrow"/>
        <line x1="550" y1="45" x2="450" y2="80" class="arrow"/>

        <text x="325" y="130" text-anchor="middle" class="small-label">Valid samples from each block concatenate
            seamlessly
        </text>
    </g>

    <!-- Key Measurements -->
    <g transform="translate(50, 620)">
        <text x="0" y="0" class="subtitle">Key Parameters:</text>

        <circle cx="20" cy="25" r="3" fill="#f59e0b"/>
        <text x="35" y="30" class="small-label">Overlap = Kernel Length - 1</text>

        <circle cx="20" cy="45" r="3" fill="#059669"/>
        <text x="35" y="50" class="small-label">Block Size = FFT Size - Kernel Length + 1</text>

        <circle cx="300" cy="25" r="3" fill="#7c3aed"/>
        <text x="315" y="30" class="small-label">FFT Size = Power of 2 ≥ Signal Block + Kernel - 1</text>

        <circle cx="300" cy="45" r="3" fill="#dc2626"/>
        <text x="315" y="50" class="small-label">Corrupted Samples = Kernel Length - 1</text>
    </g>
</svg>